<svg width="89" height="89" viewBox="0 0 89 89" fill="none" xmlns="http://www.w3.org/2000/svg">
<circle cx="44.5" cy="44.5" r="44.5" fill="#1E293B"/>
<path d="M45 30C42.2152 30 39.5445 31.1062 37.5754 33.0754C35.6063 35.0445 34.5 37.7152 34.5 40.5V45.792C34.5002 46.0247 34.4463 46.2542 34.3425 46.4625L31.767 51.612C31.6412 51.8636 31.5818 52.1431 31.5944 52.4241C31.6071 52.7051 31.6913 52.9782 31.8392 53.2175C31.9871 53.4568 32.1937 53.6543 32.4394 53.7912C32.6851 53.9282 32.9617 54 33.243 54H56.757C57.0383 54 57.3149 53.9282 57.5606 53.7912C57.8063 53.6543 58.0129 53.4568 58.1608 53.2175C58.3087 52.9782 58.393 52.7051 58.4056 52.4241C58.4182 52.1431 58.3588 51.8636 58.233 51.612L55.659 46.4625C55.5547 46.2544 55.5003 46.0248 55.5 45.792V40.5C55.5 37.7152 54.3938 35.0445 52.4246 33.0754C50.4555 31.1062 47.7848 30 45 30ZM45 58.5C44.069 58.5005 43.1608 58.2122 42.4005 57.6749C41.6403 57.1376 41.0653 56.3777 40.755 55.5H49.245C48.9347 56.3777 48.3598 57.1376 47.5995 57.6749C46.8392 58.2122 45.931 58.5005 45 58.5Z" fill="#3B82F6"/>
</svg>
