<svg width="36" height="36" viewBox="0 0 36 36" fill="none" xmlns="http://www.w3.org/2000/svg">
<path fill-rule="evenodd" clip-rule="evenodd" d="M22.128 2.871C21.2876 4.02768 20.7779 5.39134 20.6537 6.8157C20.5294 8.24006 20.7953 9.67137 21.4228 10.9561C22.0503 12.2408 23.0157 13.3305 24.2155 14.1081C25.4152 14.8858 26.8041 15.3222 28.233 15.3705V15.387C28.2555 15.684 28.278 15.9885 28.308 16.2825C28.6635 19.653 29.4735 21.9675 30.252 23.487C30.7695 24.4995 31.278 25.1715 31.638 25.578C31.796 25.7572 31.9664 25.9252 32.148 26.0805L32.163 26.0895C32.3555 26.2292 32.4987 26.4263 32.5722 26.6525C32.6457 26.8786 32.6456 27.1223 32.5719 27.3484C32.4983 27.5745 32.3549 27.7715 32.1623 27.911C31.9697 28.0506 31.7378 28.1255 31.5 28.125H4.50001C4.26272 28.1247 4.03158 28.0494 3.83967 27.9098C3.64776 27.7703 3.50489 27.5736 3.4315 27.3479C3.35811 27.1223 3.35795 26.8792 3.43106 26.6534C3.50416 26.4277 3.64678 26.2308 3.83851 26.091L3.85051 26.0805L3.94651 25.9995C4.03651 25.9185 4.18201 25.782 4.36201 25.578C4.72201 25.173 5.23051 24.501 5.74801 23.4885C6.78301 21.465 7.87501 18.045 7.87501 12.6C7.87501 9.7785 8.92501 7.059 10.815 5.043C12.708 3.024 15.291 1.875 18 1.875C18.574 1.875 19.1405 1.9255 19.6995 2.0265C20.0565 2.091 21.2265 2.4555 22.128 2.871Z" fill="url(#paint0_linear_53_224)"/>
<path fill-rule="evenodd" clip-rule="evenodd" d="M22.8751 7.5C22.8751 6.00816 23.4677 4.57742 24.5226 3.52252C25.5775 2.46763 27.0082 1.875 28.5001 1.875C29.9919 1.875 31.4226 2.46763 32.4775 3.52252C33.5324 4.57742 34.1251 6.00816 34.1251 7.5C34.1251 8.99184 33.5324 10.4226 32.4775 11.4775C31.4226 12.5324 29.9919 13.125 28.5001 13.125C27.0082 13.125 25.5775 12.5324 24.5226 11.4775C23.4677 10.4226 22.8751 8.99184 22.8751 7.5ZM14.8411 30.5265C14.9689 30.4524 15.1101 30.4043 15.2565 30.3847C15.403 30.3652 15.5518 30.3748 15.6946 30.4128C15.8374 30.4508 15.9713 30.5166 16.0886 30.6064C16.206 30.6961 16.3045 30.8082 16.3786 30.936C16.5434 31.22 16.78 31.4556 17.0645 31.6195C17.3491 31.7833 17.6717 31.8695 18.0001 31.8695C18.3284 31.8695 18.651 31.7833 18.9356 31.6195C19.2201 31.4556 19.4567 31.22 19.6216 30.936C19.6957 30.8082 19.7943 30.6962 19.9118 30.6064C20.0292 30.5167 20.1632 30.451 20.306 30.413C20.4489 30.3751 20.5978 30.3656 20.7443 30.3852C20.8908 30.4048 21.032 30.4531 21.1598 30.5272C21.2876 30.6014 21.3996 30.7 21.4894 30.8175C21.5791 30.9349 21.6448 31.0689 21.6828 31.2117C21.7207 31.3546 21.7302 31.5035 21.7106 31.65C21.691 31.7965 21.6427 31.9377 21.5686 32.0655C21.206 32.6908 20.6855 33.2098 20.0592 33.5706C19.4329 33.9314 18.7228 34.1213 18.0001 34.1213C17.2773 34.1213 16.5672 33.9314 15.9409 33.5706C15.3146 33.2098 14.7941 32.6908 14.4316 32.0655C14.3572 31.9376 14.3089 31.7963 14.2893 31.6497C14.2696 31.5031 14.2791 31.354 14.3171 31.2111C14.3552 31.0681 14.421 30.9341 14.5109 30.8166C14.6008 30.6991 14.713 30.6006 14.8411 30.5265Z" fill="url(#paint1_linear_53_224)"/>
<defs>
<linearGradient id="paint0_linear_53_224" x1="3.37634" y1="15" x2="32.6273" y2="15" gradientUnits="userSpaceOnUse">
<stop stop-color="#3B82F6"/>
<stop offset="1" stop-color="#00FFFF"/>
</linearGradient>
<linearGradient id="paint1_linear_53_224" x1="14.2793" y1="17.9982" x2="34.1251" y2="17.9982" gradientUnits="userSpaceOnUse">
<stop stop-color="#3B82F6"/>
<stop offset="1" stop-color="#00FFFF"/>
</linearGradient>
</defs>
</svg>
