<svg width="21" height="18" viewBox="0 0 21 18" fill="none" xmlns="http://www.w3.org/2000/svg">
<path d="M5.84883 1.28666L5.44086 2.51056H2.51056C1.12583 2.51056 0 3.63639 0 5.02113V15.0634C0 16.4481 1.12583 17.5739 2.51056 17.5739H17.5739C18.9587 17.5739 20.0845 16.4481 20.0845 15.0634V5.02113C20.0845 3.63639 18.9587 2.51056 17.5739 2.51056H14.6436L14.2357 1.28666C13.9807 0.517804 13.2628 0 12.4508 0H7.63368C6.82167 0 6.10381 0.517804 5.84883 1.28666ZM10.0423 6.27641C11.041 6.27641 11.9989 6.67317 12.7051 7.3794C13.4113 8.08563 13.8081 9.04349 13.8081 10.0423C13.8081 11.041 13.4113 11.9989 12.7051 12.7051C11.9989 13.4113 11.041 13.8081 10.0423 13.8081C9.04349 13.8081 8.08563 13.4113 7.3794 12.7051C6.67317 11.9989 6.27641 11.041 6.27641 10.0423C6.27641 9.04349 6.67317 8.08563 7.3794 7.3794C8.08563 6.67317 9.04349 6.27641 10.0423 6.27641Z" fill="white"/>
</svg>
