<svg width="148" height="148" viewBox="0 0 148 148" fill="none" xmlns="http://www.w3.org/2000/svg">
<circle cx="74" cy="74" r="74" fill="url(#paint0_linear_2004_2)"/>
<path fill-rule="evenodd" clip-rule="evenodd" d="M81.528 58C82.6421 58 83.7342 58.3103 84.6819 58.8959C85.6297 59.4816 86.3956 60.3196 86.894 61.316L89.666 66.858C90.154 66.658 90.634 66.442 91.106 66.21C91.5807 65.9729 92.1302 65.9341 92.6336 66.1021C93.1369 66.2702 93.5529 66.6313 93.79 67.106C94.0271 67.5807 94.0659 68.1302 93.8979 68.6336C93.7298 69.1369 93.3687 69.5529 92.894 69.79C92.4132 70.004 91.9299 70.212 91.444 70.414L93.366 74.26C93.7832 75.0939 94.0002 76.0136 94 76.946V82C94 82.8442 93.8218 83.6788 93.4772 84.4494C93.1326 85.22 92.6292 85.9092 92 86.472V89C92 89.7956 91.6839 90.5587 91.1213 91.1213C90.5587 91.6839 89.7957 92 89 92C88.2043 92 87.4413 91.6839 86.8787 91.1213C86.3161 90.5587 86 89.7956 86 89V88H62V89C62 89.7956 61.6839 90.5587 61.1213 91.1213C60.5587 91.6839 59.7956 92 59 92C58.2044 92 57.4413 91.6839 56.8787 91.1213C56.3161 90.5587 56 89.7956 56 89V86.472C54.772 85.372 54 83.776 54 82V76.944C54.0004 76.0129 54.2174 75.0947 54.634 74.262L56.54 70.446C56.0573 70.2433 55.5807 70.0253 55.11 69.792C54.6377 69.5518 54.2786 69.1356 54.1103 68.6332C53.9419 68.1308 53.9777 67.5823 54.21 67.106C54.3273 66.8709 54.4898 66.6611 54.6882 66.4888C54.8866 66.3165 55.1171 66.185 55.3663 66.1018C55.6156 66.0186 55.8788 65.9853 56.1409 66.0039C56.4031 66.0224 56.659 66.0925 56.894 66.21C57.3673 66.4433 57.8473 66.6593 58.334 66.858L61.106 61.318C61.6041 60.3212 62.3699 59.4828 63.3177 58.8968C64.2655 58.3108 65.3577 58.0002 66.472 58H81.528ZM65 76C64.2044 76 63.4413 76.3161 62.8787 76.8787C62.3161 77.4413 62 78.2044 62 79C62 79.7956 62.3161 80.5587 62.8787 81.1213C63.4413 81.6839 64.2044 82 65 82C65.7956 82 66.5587 81.6839 67.1213 81.1213C67.6839 80.5587 68 79.7956 68 79C68 78.2044 67.6839 77.4413 67.1213 76.8787C66.5587 76.3161 65.7956 76 65 76ZM83 76C82.2044 76 81.4413 76.3161 80.8787 76.8787C80.3161 77.4413 80 78.2044 80 79C80 79.7956 80.3161 80.5587 80.8787 81.1213C81.4413 81.6839 82.2044 82 83 82C83.7956 82 84.5587 81.6839 85.1213 81.1213C85.6839 80.5587 86 79.7956 86 79C86 78.2044 85.6839 77.4413 85.1213 76.8787C84.5587 76.3161 83.7956 76 83 76ZM81.528 62H66.472C66.1428 62 65.8187 62.0812 65.5284 62.2364C65.2382 62.3917 64.9907 62.6162 64.808 62.89L64.684 63.106L62.144 68.182C65.24 69.11 69.412 70 74 70C78.284 70 82.202 69.224 85.22 68.366L85.854 68.182L83.316 63.106C83.1688 62.8116 82.9512 62.5581 82.6826 62.368C82.414 62.1779 82.1026 62.0569 81.776 62.016L81.53 62H81.528Z" fill="black"/>
<defs>
<linearGradient id="paint0_linear_2004_2" x1="0" y1="74" x2="148" y2="74" gradientUnits="userSpaceOnUse">
<stop stop-color="#3B82F6"/>
<stop offset="1" stop-color="#00FFFF"/>
</linearGradient>
</defs>
</svg>
