<svg width="148" height="148" viewBox="0 0 148 148" fill="none" xmlns="http://www.w3.org/2000/svg">
<circle cx="74" cy="74" r="74" fill="url(#paint0_linear_2004_3)"/>
<path fill-rule="evenodd" clip-rule="evenodd" d="M84 51C86.0525 51 88.0265 51.7889 89.5136 53.2034C91.0008 54.618 91.8874 56.5501 91.99 58.6L92 59V79C92 81.0525 91.2111 83.0265 89.7966 84.5136C88.382 86.0008 86.4499 86.8874 84.4 86.99L84 87H64C61.9475 87 59.9735 86.2111 58.4864 84.7966C56.9992 83.382 56.1126 81.4499 56.01 79.4L56 79V59C56 56.9475 56.7889 54.9735 58.2034 53.4864C59.618 51.9992 61.5501 51.1126 63.6 51.01L64 51H84ZM73 75C72.2044 75 71.4413 75.3161 70.8787 75.8787C70.3161 76.4413 70 77.2044 70 78C70 78.7956 70.3161 79.5587 70.8787 80.1213C71.4413 80.6839 72.2044 81 73 81C73.7956 81 74.5587 80.6839 75.1213 80.1213C75.6839 79.5587 76 78.7956 76 78C76 77.2044 75.6839 76.4413 75.1213 75.8787C74.5587 75.3161 73.7956 75 73 75ZM75 66H67C66.2296 66.0004 65.4888 66.2972 64.9312 66.8288C64.3736 67.3605 64.042 68.0863 64.005 68.8558C63.9679 69.6254 64.2284 70.3797 64.7324 70.9624C65.2363 71.5451 65.9452 71.9117 66.712 71.986L67 72H75C75.7704 71.9996 76.5112 71.7028 77.0688 71.1712C77.6264 70.6395 77.958 69.9137 77.995 69.1442C78.0321 68.3746 77.7716 67.6203 77.2676 67.0376C76.7637 66.4549 76.0548 66.0883 75.288 66.014L75 66ZM81 57H69C68.2044 57 67.4413 57.3161 66.8787 57.8787C66.3161 58.4413 66 59.2044 66 60C66 60.7956 66.3161 61.5587 66.8787 62.1213C67.4413 62.6839 68.2044 63 69 63H81C81.7956 63 82.5587 62.6839 83.1213 62.1213C83.6839 61.5587 84 60.7956 84 60C84 59.2044 83.6839 58.4413 83.1213 57.8787C82.5587 57.3161 81.7956 57 81 57Z" fill="black"/>
<defs>
<linearGradient id="paint0_linear_2004_3" x1="0" y1="74" x2="148" y2="74" gradientUnits="userSpaceOnUse">
<stop stop-color="#3B82F6"/>
<stop offset="1" stop-color="#00FFFF"/>
</linearGradient>
</defs>
</svg>
