<svg width="127" height="127" viewBox="0 0 127 127" fill="none" xmlns="http://www.w3.org/2000/svg">
<circle cx="63.5" cy="63.5" r="63.5" fill="#3B82F6" fill-opacity="0.2"/>
<path d="M84 56.3238V56.4698C84 58.1898 84 59.0518 83.586 59.7558C83.172 60.4598 82.418 60.8778 80.914 61.7158L79.328 62.5958C80.42 58.8998 80.786 54.9278 80.92 51.5318L80.94 51.0898L80.944 50.9858C82.246 51.4378 82.978 51.7758 83.434 52.4078C84 53.1938 84 54.2378 84 56.3238ZM44 56.3238V56.4698C44 58.1898 44 59.0518 44.414 59.7558C44.828 60.4598 45.582 60.8778 47.086 61.7158L48.674 62.5958C47.58 58.8998 47.214 54.9278 47.08 51.5318L47.06 51.0898L47.058 50.9858C45.754 51.4378 45.022 51.7758 44.566 52.4078C44 53.1938 44 54.2398 44 56.3238Z" fill="url(#paint0_linear_2015_19)"/>
<path fill-rule="evenodd" clip-rule="evenodd" d="M72.754 44.694C69.8603 44.22 66.9322 43.9878 64 44C60.434 44 57.494 44.314 55.246 44.694C52.968 45.078 51.83 45.27 50.878 46.442C49.928 47.614 49.978 48.88 50.078 51.412C50.424 60.108 52.3 70.972 62.5 71.932V79H59.64C59.1778 79.0002 58.73 79.1606 58.3727 79.4537C58.0154 79.7469 57.7706 80.1547 57.68 80.608L57.3 82.5H52C51.6022 82.5 51.2207 82.658 50.9394 82.9393C50.658 83.2206 50.5 83.6021 50.5 84C50.5 84.3978 50.658 84.7793 50.9394 85.0606C51.2207 85.3419 51.6022 85.5 52 85.5H76C76.3978 85.5 76.7794 85.3419 77.0607 85.0606C77.342 84.7793 77.5 84.3978 77.5 84C77.5 83.6021 77.342 83.2206 77.0607 82.9393C76.7794 82.658 76.3978 82.5 76 82.5H70.7L70.32 80.608C70.2294 80.1547 69.9847 79.7469 69.6273 79.4537C69.27 79.1606 68.8222 79.0002 68.36 79H65.5V71.932C75.7 70.972 77.578 60.11 77.922 51.412C78.022 48.88 78.074 47.612 77.122 46.442C76.17 45.27 75.032 45.078 72.754 44.694Z" fill="url(#paint1_linear_2015_19)"/>
<defs>
<linearGradient id="paint0_linear_2015_19" x1="44" y1="56.7908" x2="84" y2="56.7908" gradientUnits="userSpaceOnUse">
<stop stop-color="#3B82F6"/>
<stop offset="1" stop-color="#00FFFF"/>
</linearGradient>
<linearGradient id="paint1_linear_2015_19" x1="50.0266" y1="64.7497" x2="77.9737" y2="64.7497" gradientUnits="userSpaceOnUse">
<stop stop-color="#3B82F6"/>
<stop offset="1" stop-color="#00FFFF"/>
</linearGradient>
</defs>
</svg>
