<svg width="89" height="89" viewBox="0 0 89 89" fill="none" xmlns="http://www.w3.org/2000/svg">
<circle cx="44.5" cy="44.5" r="44.5" fill="#1E293B"/>
<path d="M32.625 42.7502C32.3266 42.7502 32.0405 42.6317 31.8295 42.4207C31.6185 42.2097 31.5 41.9236 31.5 41.6252V32.6274C31.5 32.3291 31.6185 32.0429 31.8295 31.8319C32.0405 31.621 32.3266 31.5024 32.625 31.5024H41.625C41.9234 31.5024 42.2095 31.621 42.4205 31.8319C42.6315 32.0429 42.75 32.3291 42.75 32.6274V41.6252C42.75 41.9236 42.6315 42.2097 42.4205 42.4207C42.2095 42.6317 41.9234 42.7502 41.625 42.7502H32.625ZM48.375 42.7502C48.0766 42.7502 47.7905 42.6317 47.5795 42.4207C47.3685 42.2097 47.25 41.9236 47.25 41.6252V32.6274C47.25 32.3291 47.3685 32.0429 47.5795 31.8319C47.7905 31.621 48.0766 31.5024 48.375 31.5024H57.3727C57.6711 31.5024 57.9573 31.621 58.1682 31.8319C58.3792 32.0429 58.4977 32.3291 58.4977 32.6274V41.6252C58.4977 41.9236 58.3792 42.2097 58.1682 42.4207C57.9573 42.6317 57.6711 42.7502 57.3727 42.7502H48.375ZM32.625 58.5002C32.3266 58.5002 32.0405 58.3817 31.8295 58.1707C31.6185 57.9597 31.5 57.6736 31.5 57.3752V48.3752C31.5 48.0768 31.6185 47.7907 31.8295 47.5797C32.0405 47.3687 32.3266 47.2502 32.625 47.2502H41.625C41.9234 47.2502 42.2095 47.3687 42.4205 47.5797C42.6315 47.7907 42.75 48.0768 42.75 48.3752V57.3752C42.75 57.6736 42.6315 57.9597 42.4205 58.1707C42.2095 58.3817 41.9234 58.5002 41.625 58.5002H32.625ZM48.375 58.5002C48.0766 58.5002 47.7905 58.3817 47.5795 58.1707C47.3685 57.9597 47.25 57.6736 47.25 57.3752V48.3752C47.25 48.0768 47.3685 47.7907 47.5795 47.5797C47.7905 47.3687 48.0766 47.2502 48.375 47.2502H57.3727C57.6711 47.2502 57.9573 47.3687 58.1682 47.5797C58.3792 47.7907 58.4977 48.0768 58.4977 48.3752V57.3752C58.4977 57.6736 58.3792 57.9597 58.1682 58.1707C57.9573 58.3817 57.6711 58.5002 57.3727 58.5002H48.375Z" fill="#3B82F6"/>
</svg>
