<svg width="127" height="127" viewBox="0 0 127 127" fill="none" xmlns="http://www.w3.org/2000/svg">
<circle cx="63.5" cy="63.5" r="63.5" fill="#3B82F6" fill-opacity="0.2"/>
<path d="M58.12 43.8599C54.34 43.8399 50.66 47.4799 52.34 51.9999H46C44.9391 51.9999 43.9217 52.4214 43.1716 53.1715C42.4214 53.9217 42 54.9391 42 55.9999V59.9999C42 60.5304 42.2107 61.0391 42.5858 61.4142C42.9609 61.7892 43.4696 61.9999 44 61.9999H62V55.9999H66V61.9999H84C84.5304 61.9999 85.0391 61.7892 85.4142 61.4142C85.7893 61.0391 86 60.5304 86 59.9999V55.9999C86 54.9391 85.5786 53.9217 84.8284 53.1715C84.0783 52.4214 83.0609 51.9999 82 51.9999H75.66C78 45.4599 69.2 40.8399 65.14 46.4799L64 47.9999L62.86 46.4399C61.6 44.6599 59.86 43.8799 58.12 43.8599ZM58 47.9999C59.78 47.9999 60.68 50.1599 59.42 51.4199C58.16 52.6799 56 51.7799 56 49.9999C56 49.4695 56.2107 48.9608 56.5858 48.5857C56.9609 48.2107 57.4696 47.9999 58 47.9999ZM70 47.9999C71.78 47.9999 72.68 50.1599 71.42 51.4199C70.16 52.6799 68 51.7799 68 49.9999C68 49.4695 68.2107 48.9608 68.5858 48.5857C68.9609 48.2107 69.4696 47.9999 70 47.9999ZM44 63.9999V79.9999C44 81.0608 44.4214 82.0782 45.1716 82.8284C45.9217 83.5785 46.9391 83.9999 48 83.9999H80C81.0609 83.9999 82.0783 83.5785 82.8284 82.8284C83.5786 82.0782 84 81.0608 84 79.9999V63.9999H66V79.9999H62V63.9999H44Z" fill="url(#paint0_linear_2013_17)"/>
<defs>
<linearGradient id="paint0_linear_2013_17" x1="42" y1="63.9299" x2="86" y2="63.9299" gradientUnits="userSpaceOnUse">
<stop stop-color="#3B82F6"/>
<stop offset="1" stop-color="#00FFFF"/>
</linearGradient>
</defs>
</svg>
