<svg width="75" height="75" viewBox="0 0 75 75" fill="none" xmlns="http://www.w3.org/2000/svg">
<circle cx="37.5" cy="37.5" r="37.5" fill="#3B82F6" fill-opacity="0.2"/>
<path fill-rule="evenodd" clip-rule="evenodd" d="M24.5 36.5C24.5 30.8435 24.5 28.0145 26.258 26.258C28.016 24.5015 30.8435 24.5 36.5 24.5H39.5C45.1565 24.5 47.9855 24.5 49.742 26.258C51.4985 28.016 51.5 30.8435 51.5 36.5V39.5C51.5 45.1565 51.5 47.9855 49.742 49.742C47.984 51.4985 45.1565 51.5 39.5 51.5H36.5C30.8435 51.5 28.0145 51.5 26.258 49.742C24.5015 47.984 24.5 45.1565 24.5 39.5V36.5ZM47 31.25C47 31.8467 46.7629 32.419 46.341 32.841C45.919 33.2629 45.3467 33.5 44.75 33.5C44.1533 33.5 43.581 33.2629 43.159 32.841C42.7371 32.419 42.5 31.8467 42.5 31.25C42.5 30.6533 42.7371 30.081 43.159 29.659C43.581 29.2371 44.1533 29 44.75 29C45.3467 29 45.919 29.2371 46.341 29.659C46.7629 30.081 47 30.6533 47 31.25ZM41 39.5C41 40.2956 40.6839 41.0587 40.1213 41.6213C39.5587 42.1839 38.7956 42.5 38 42.5C37.2044 42.5 36.4413 42.1839 35.8787 41.6213C35.3161 41.0587 35 40.2956 35 39.5C35 38.7044 35.3161 37.9413 35.8787 37.3787C36.4413 36.8161 37.2044 36.5 38 36.5C38.7956 36.5 39.5587 36.8161 40.1213 37.3787C40.6839 37.9413 41 38.7044 41 39.5ZM44 39.5C44 41.0913 43.3679 42.6174 42.2426 43.7426C41.1174 44.8679 39.5913 45.5 38 45.5C36.4087 45.5 34.8826 44.8679 33.7574 43.7426C32.6321 42.6174 32 41.0913 32 39.5C32 37.9087 32.6321 36.3826 33.7574 35.2574C34.8826 34.1321 36.4087 33.5 38 33.5C39.5913 33.5 41.1174 34.1321 42.2426 35.2574C43.3679 36.3826 44 37.9087 44 39.5Z" fill="url(#paint0_linear_2036_26)"/>
<defs>
<linearGradient id="paint0_linear_2036_26" x1="24.5" y1="38" x2="51.5" y2="38" gradientUnits="userSpaceOnUse">
<stop stop-color="#3B82F6"/>
<stop offset="1" stop-color="#00FFFF"/>
</linearGradient>
</defs>
</svg>
