<svg width="36" height="36" viewBox="0 0 36 36" fill="none" xmlns="http://www.w3.org/2000/svg">
<path d="M18 25.9123L11.775 29.6623C11.5 29.8373 11.2125 29.9123 10.9125 29.8873C10.6125 29.8623 10.35 29.7623 10.125 29.5873C9.9 29.4123 9.72501 29.1938 9.60001 28.9318C9.47501 28.6698 9.45 28.3758 9.525 28.0498L11.175 20.9623L5.66251 16.1998C5.41251 15.9748 5.25651 15.7183 5.19451 15.4303C5.13251 15.1423 5.15101 14.8613 5.25001 14.5873C5.34901 14.3133 5.499 14.0883 5.7 13.9123C5.901 13.7363 6.176 13.6238 6.525 13.5748L13.8 12.9373L16.6125 6.2623C16.7375 5.9623 16.9315 5.7373 17.1945 5.5873C17.4575 5.4373 17.726 5.3623 18 5.3623C18.274 5.3623 18.5425 5.4373 18.8055 5.5873C19.0685 5.7373 19.2625 5.9623 19.3875 6.2623L22.2 12.9373L29.475 13.5748C29.825 13.6248 30.1 13.7373 30.3 13.9123C30.5 14.0873 30.65 14.3123 30.75 14.5873C30.85 14.8623 30.869 15.1438 30.807 15.4318C30.745 15.7198 30.5885 15.9758 30.3375 16.1998L24.825 20.9623L26.475 28.0498C26.55 28.3748 26.525 28.6688 26.4 28.9318C26.275 29.1948 26.1 29.4133 25.875 29.5873C25.65 29.7613 25.3875 29.8613 25.0875 29.8873C24.7875 29.9133 24.5 29.8383 24.225 29.6623L18 25.9123Z" fill="#EF4444"/>
</svg>
