<svg width="127" height="127" viewBox="0 0 127 127" fill="none" xmlns="http://www.w3.org/2000/svg">
<circle cx="63.5" cy="63.5" r="63.5" fill="#3B82F6" fill-opacity="0.2"/>
<path d="M80 44H48V48L59.62 56.72C56.0935 57.8829 53.173 60.3983 51.5003 63.7136C49.8277 67.0289 49.5398 70.8726 50.7 74.4C51.274 76.1474 52.1868 77.7645 53.3864 79.1587C54.5859 80.553 56.0485 81.6971 57.6906 82.5256C59.3327 83.3541 61.122 83.8507 62.9562 83.987C64.7904 84.1233 66.6335 83.8966 68.38 83.32C71.181 82.3994 73.6198 80.618 75.3487 78.2297C77.0777 75.8415 78.0085 72.9684 78.0085 70.02C78.0085 67.0716 77.0777 64.1985 75.3487 61.8103C73.6198 59.4221 71.181 57.6406 68.38 56.72L80 48V44ZM69.88 79L64 75.56L58.12 79L59.68 72.34L54.5 67.86L61.32 67.28L64 61L66.68 67.28L73.5 67.86L68.32 72.34L69.88 79Z" fill="url(#paint0_linear_2014_18)"/>
<defs>
<linearGradient id="paint0_linear_2014_18" x1="48" y1="64.0127" x2="80" y2="64.0127" gradientUnits="userSpaceOnUse">
<stop stop-color="#3B82F6"/>
<stop offset="1" stop-color="#00FFFF"/>
</linearGradient>
</defs>
</svg>
