<svg width="89" height="89" viewBox="0 0 89 89" fill="none" xmlns="http://www.w3.org/2000/svg">
<circle cx="44.5" cy="44.5" r="44.5" fill="#1E293B"/>
<path d="M45 30C42.2152 30 39.5445 31.1062 37.5754 33.0754C35.6062 35.0445 34.5 37.7152 34.5 40.5C34.5 44.07 36.285 47.205 39 49.11V52.5C39 52.8978 39.158 53.2794 39.4393 53.5607C39.7206 53.842 40.1022 54 40.5 54H49.5C49.8978 54 50.2794 53.842 50.5607 53.5607C50.842 53.2794 51 52.8978 51 52.5V49.11C53.715 47.205 55.5 44.07 55.5 40.5C55.5 37.7152 54.3938 35.0445 52.4246 33.0754C50.4555 31.1062 47.7848 30 45 30ZM40.5 58.5C40.5 58.8978 40.658 59.2794 40.9393 59.5607C41.2206 59.842 41.6022 60 42 60H48C48.3978 60 48.7794 59.842 49.0607 59.5607C49.342 59.2794 49.5 58.8978 49.5 58.5V57H40.5V58.5Z" fill="#3B82F6"/>
</svg>
