<svg width="103" height="102" viewBox="0 0 103 102" fill="none" xmlns="http://www.w3.org/2000/svg">
<ellipse cx="51.5" cy="51" rx="51.5" ry="51" fill="#3B82F6" fill-opacity="0.2"/>
<path d="M41.924 64.5C41.257 64.5 40.6865 64.2625 40.2125 63.7875C39.7385 63.3125 39.501 62.743 39.5 62.079V48.924C39.5 48.258 39.7375 47.688 40.2125 47.214C40.6875 46.74 41.2575 46.502 41.9225 46.5H44V43.5C44 41.829 44.5825 40.4115 45.7475 39.2475C46.9115 38.0825 48.329 37.5 50 37.5C51.671 37.5 53.089 38.0825 54.254 39.2475C55.419 40.4125 56.001 41.83 56 43.5V46.5H58.0775C58.7435 46.5 59.3135 46.7375 59.7875 47.2125C60.2615 47.6875 60.499 48.2575 60.5 48.9225V62.0775C60.5 62.7435 60.2625 63.3135 59.7875 63.7875C59.3125 64.2615 58.7425 64.499 58.0775 64.5H41.924ZM50 57.75C50.633 57.75 51.166 57.533 51.599 57.099C52.033 56.666 52.25 56.133 52.25 55.5C52.25 54.867 52.033 54.334 51.599 53.901C51.165 53.468 50.632 53.251 50 53.25C49.368 53.249 48.835 53.466 48.401 53.901C47.967 54.334 47.75 54.867 47.75 55.5C47.75 56.133 47.967 56.666 48.401 57.099C48.834 57.533 49.367 57.75 50 57.75ZM45.5 46.5H54.5V43.5C54.5 42.25 54.0625 41.1875 53.1875 40.3125C52.3125 39.4375 51.25 39 50 39C48.75 39 47.6875 39.4375 46.8125 40.3125C45.9375 41.1875 45.5 42.25 45.5 43.5V46.5Z" fill="#E5E7EB"/>
</svg>
