<svg width="89" height="89" viewBox="0 0 89 89" fill="none" xmlns="http://www.w3.org/2000/svg">
<circle cx="44.5" cy="44.5" r="44.5" fill="#1E293B"/>
<path d="M51 52.5001V55.5001H30V52.5001C30 52.5001 30 46.5001 40.5 46.5001C51 46.5001 51 52.5001 51 52.5001ZM45.75 38.2501C45.75 37.2117 45.4421 36.1967 44.8652 35.3333C44.2883 34.47 43.4684 33.797 42.5091 33.3997C41.5498 33.0023 40.4942 32.8984 39.4758 33.1009C38.4574 33.3035 37.5219 33.8035 36.7877 34.5377C36.0535 35.272 35.5534 36.2074 35.3509 37.2258C35.1483 38.2442 35.2523 39.2998 35.6496 40.2591C36.047 41.2185 36.7199 42.0384 37.5833 42.6153C38.4466 43.1921 39.4616 43.5001 40.5 43.5001C41.8924 43.5001 43.2277 42.9469 44.2123 41.9624C45.1969 40.9778 45.75 39.6424 45.75 38.2501ZM50.91 46.5001C51.8321 47.2137 52.5867 48.1207 53.1205 49.1573C53.6544 50.1939 53.9546 51.3349 54 52.5001V55.5001H60V52.5001C60 52.5001 60 47.0551 50.91 46.5001ZM49.5 33.0001C48.4677 32.9953 47.4582 33.3039 46.605 33.8851C47.5162 35.1582 48.0061 36.6845 48.0061 38.2501C48.0061 39.8156 47.5162 41.3419 46.605 42.6151C47.4582 43.1963 48.4677 43.5049 49.5 43.5001C50.8924 43.5001 52.2277 42.9469 53.2123 41.9624C54.1969 40.9778 54.75 39.6424 54.75 38.2501C54.75 36.8577 54.1969 35.5223 53.2123 34.5377C52.2277 33.5532 50.8924 33.0001 49.5 33.0001Z" fill="#3B82F6"/>
</svg>
