<svg width="89" height="89" viewBox="0 0 89 89" fill="none" xmlns="http://www.w3.org/2000/svg">
<circle cx="44.5" cy="44.5" r="44.5" fill="#1E293B"/>
<path d="M45 52.9123L38.775 56.6623C38.5 56.8373 38.2125 56.9123 37.9125 56.8873C37.6125 56.8623 37.35 56.7623 37.125 56.5873C36.9 56.4123 36.725 56.1938 36.6 55.9318C36.475 55.6698 36.45 55.3758 36.525 55.0498L38.175 47.9623L32.6625 43.1998C32.4125 42.9748 32.2565 42.7183 32.1945 42.4303C32.1325 42.1423 32.151 41.8613 32.25 41.5873C32.349 41.3133 32.499 41.0883 32.7 40.9123C32.901 40.7363 33.176 40.6238 33.525 40.5748L40.8 39.9373L43.6125 33.2623C43.7375 32.9623 43.9315 32.7373 44.1945 32.5873C44.4575 32.4373 44.726 32.3623 45 32.3623C45.274 32.3623 45.5425 32.4373 45.8055 32.5873C46.0685 32.7373 46.2625 32.9623 46.3875 33.2623L49.2 39.9373L56.475 40.5748C56.825 40.6248 57.1 40.7373 57.3 40.9123C57.5 41.0873 57.65 41.3123 57.75 41.5873C57.85 41.8623 57.869 42.1438 57.807 42.4318C57.745 42.7198 57.5885 42.9758 57.3375 43.1998L51.825 47.9623L53.475 55.0498C53.55 55.3748 53.525 55.6688 53.4 55.9318C53.275 56.1948 53.1 56.4133 52.875 56.5873C52.65 56.7613 52.3875 56.8613 52.0875 56.8873C51.7875 56.9133 51.5 56.8383 51.225 56.6623L45 52.9123Z" fill="#3B82F6"/>
</svg>
