<svg width="76" height="75" viewBox="0 0 76 75" fill="none" xmlns="http://www.w3.org/2000/svg">
<ellipse cx="38" cy="37.5" rx="38" ry="37.5" fill="#3B82F6" fill-opacity="0.2"/>
<path d="M44.9 28.73C43.8749 27.5593 43.3098 26.0561 43.31 24.5H38.675V43.1C38.64 44.1068 38.2153 45.0606 37.4905 45.7602C36.7656 46.4599 35.7974 46.8506 34.79 46.85C32.66 46.85 30.89 45.11 30.89 42.95C30.89 40.37 33.38 38.435 35.945 39.23V34.49C30.77 33.8 26.24 37.82 26.24 42.95C26.24 47.945 30.38 51.5 34.775 51.5C39.485 51.5 43.31 47.675 43.31 42.95V33.515C45.1895 34.8648 47.446 35.589 49.76 35.585V30.95C49.76 30.95 46.94 31.085 44.9 28.73Z" fill="url(#paint0_linear_2036_27)"/>
<defs>
<linearGradient id="paint0_linear_2036_27" x1="26.24" y1="38" x2="49.76" y2="38" gradientUnits="userSpaceOnUse">
<stop stop-color="#3B82F6"/>
<stop offset="1" stop-color="#00FFFF"/>
</linearGradient>
</defs>
</svg>
