<svg width="31" height="31" viewBox="0 0 31 31" fill="none" xmlns="http://www.w3.org/2000/svg">
<path d="M1.875 21.3749L8.58 14.6699C8.83212 14.4177 9.13144 14.2177 9.46088 14.0812C9.79032 13.9448 10.1434 13.8745 10.5 13.8745C10.8566 13.8745 11.2097 13.9448 11.5391 14.0812C11.8686 14.2177 12.1679 14.4177 12.42 14.6699L18.375 20.6249M18.375 20.6249L20.625 22.8749M18.375 20.6249L21.33 17.6699C21.5821 17.4177 21.8814 17.2177 22.2109 17.0812C22.5403 16.9448 22.8934 16.8745 23.25 16.8745C23.6066 16.8745 23.9597 16.9448 24.2891 17.0812C24.6186 17.2177 24.9179 17.4177 25.17 17.6699L28.875 21.3749" stroke="#3B82F6" stroke-width="2.25" stroke-linecap="round" stroke-linejoin="round"/>
<path d="M15.375 1.125C9.03 1.125 5.8575 1.125 3.7545 2.922C3.4545 3.178 3.177 3.4555 2.922 3.7545C1.125 5.8575 1.125 9.03 1.125 15.375C1.125 21.72 1.125 24.8925 2.922 26.9955C3.178 27.2955 3.4555 27.573 3.7545 27.828C5.8575 29.625 9.03 29.625 15.375 29.625C21.72 29.625 24.8925 29.625 26.9955 27.828C27.2955 27.572 27.573 27.2945 27.828 26.9955C29.625 24.8925 29.625 21.72 29.625 15.375M20.625 5.625C21.51 4.7145 23.865 1.125 25.125 1.125C26.385 1.125 28.74 4.7145 29.625 5.625M25.125 1.875V11.625" stroke="#3B82F6" stroke-width="2.25" stroke-linecap="round" stroke-linejoin="round"/>
</svg>
