<svg width="102" height="102" viewBox="0 0 102 102" fill="none" xmlns="http://www.w3.org/2000/svg">
<circle cx="51" cy="51" r="51" fill="#EAB308"/>
<path d="M42.924 64.5C42.257 64.5 41.6865 64.2625 41.2125 63.7875C40.7385 63.3125 40.501 62.743 40.5 62.079V48.924C40.5 48.258 40.7375 47.688 41.2125 47.214C41.6875 46.74 42.2575 46.502 42.9225 46.5H45V43.5C45 41.829 45.5825 40.4115 46.7475 39.2475C47.9115 38.0825 49.329 37.5 51 37.5C52.671 37.5 54.089 38.0825 55.254 39.2475C56.419 40.4125 57.001 41.83 57 43.5V46.5H59.0775C59.7435 46.5 60.3135 46.7375 60.7875 47.2125C61.2615 47.6875 61.499 48.2575 61.5 48.9225V62.0775C61.5 62.7435 61.2625 63.3135 60.7875 63.7875C60.3125 64.2615 59.7425 64.499 59.0775 64.5H42.924ZM51 57.75C51.633 57.75 52.166 57.533 52.599 57.099C53.033 56.666 53.25 56.133 53.25 55.5C53.25 54.867 53.033 54.334 52.599 53.901C52.165 53.468 51.632 53.251 51 53.25C50.368 53.249 49.835 53.466 49.401 53.901C48.967 54.334 48.75 54.867 48.75 55.5C48.75 56.133 48.967 56.666 49.401 57.099C49.834 57.533 50.367 57.75 51 57.75ZM46.5 46.5H55.5V43.5C55.5 42.25 55.0625 41.1875 54.1875 40.3125C53.3125 39.4375 52.25 39 51 39C49.75 39 48.6875 39.4375 47.8125 40.3125C46.9375 41.1875 46.5 42.25 46.5 43.5V46.5Z" fill="#1E293B"/>
</svg>
