<svg width="75" height="75" viewBox="0 0 75 75" fill="none" xmlns="http://www.w3.org/2000/svg">
<circle cx="37.5" cy="37.5" r="37.5" fill="#3B82F6" fill-opacity="0.2"/>
<path d="M38.366 26C39.167 26.0045 41.171 26.024 43.301 26.1095L44.057 26.1425C46.2005 26.243 48.3425 26.417 49.406 26.7125C50.8235 27.1115 51.9365 28.2725 52.313 29.7455C52.913 32.0855 52.988 36.6485 52.997 37.754L52.9985 37.982V38.243C52.988 39.3485 52.913 43.913 52.313 46.2515C51.932 47.729 50.8175 48.8915 49.406 49.2845C48.3425 49.58 46.2005 49.754 44.057 49.8545L43.301 49.889C41.171 49.973 39.167 49.994 38.366 49.997L38.0135 49.9985H37.631C35.936 49.988 28.847 49.9115 26.591 49.2845C25.175 48.8855 24.0605 47.7245 23.684 46.2515C23.084 43.9115 23.009 39.3485 23 38.243V37.754C23.009 36.6485 23.084 32.084 23.684 29.7455C24.065 28.268 25.1795 27.1055 26.5925 26.714C28.847 26.0855 35.9375 26.009 37.6325 26H38.366ZM34.9985 32.75V43.25L43.9985 38L34.9985 32.75Z" fill="url(#paint0_linear_2036_25)"/>
<defs>
<linearGradient id="paint0_linear_2036_25" x1="23" y1="37.9993" x2="52.9985" y2="37.9993" gradientUnits="userSpaceOnUse">
<stop stop-color="#3B82F6"/>
<stop offset="1" stop-color="#00FFFF"/>
</linearGradient>
</defs>
</svg>
